<mxfile host="Electron" modified="2024-03-12T18:58:24.229Z" agent="Mozilla/5.0 (Windows NT 10.0; Win64; x64) AppleWebKit/537.36 (KHTML, like Gecko) draw.io/23.0.2 Chrome/120.0.6099.109 Electron/28.1.0 Safari/537.36" etag="q-Oby11t3a_m09g__4Xc" version="23.0.2" type="device">
  <diagram name="Page-1" id="vYcf25N4CKb9PXmXp7eg">
    <mxGraphModel dx="1050" dy="621" grid="1" gridSize="10" guides="1" tooltips="1" connect="1" arrows="1" fold="1" page="1" pageScale="1" pageWidth="2339" pageHeight="3300" math="0" shadow="0">
      <root>
        <mxCell id="0" />
        <mxCell id="1" parent="0" />
        <mxCell id="aH-Z5DzKjMp7ACJ8Fh6H-9" value="&lt;h6&gt;&lt;br&gt;&lt;/h6&gt;" style="html=1;whiteSpace=wrap;fillColor=#fff2cc;strokeColor=#d6b656;" parent="1" vertex="1">
          <mxGeometry x="661" y="121" width="760" height="780" as="geometry" />
        </mxCell>
        <mxCell id="aH-Z5DzKjMp7ACJ8Fh6H-19" value="" style="html=1;whiteSpace=wrap;fillColor=#dae8fc;strokeColor=#6c8ebf;" parent="1" vertex="1">
          <mxGeometry x="1130" y="270" width="220" height="130" as="geometry" />
        </mxCell>
        <mxCell id="aH-Z5DzKjMp7ACJ8Fh6H-13" value="" style="html=1;whiteSpace=wrap;fillColor=#dae8fc;strokeColor=#6c8ebf;" parent="1" vertex="1">
          <mxGeometry x="685" y="270" width="295" height="120" as="geometry" />
        </mxCell>
        <mxCell id="aH-Z5DzKjMp7ACJ8Fh6H-12" value="" style="html=1;whiteSpace=wrap;fillColor=#dae8fc;strokeColor=#6c8ebf;" parent="1" vertex="1">
          <mxGeometry x="700" y="440" width="320" height="390" as="geometry" />
        </mxCell>
        <mxCell id="aH-Z5DzKjMp7ACJ8Fh6H-5" value="&lt;h6&gt;&lt;br&gt;&lt;/h6&gt;" style="html=1;whiteSpace=wrap;fillColor=#fff2cc;strokeColor=#d6b656;" parent="1" vertex="1">
          <mxGeometry x="350" y="220" width="160" height="370" as="geometry" />
        </mxCell>
        <mxCell id="aH-Z5DzKjMp7ACJ8Fh6H-6" value="" style="html=1;whiteSpace=wrap;fillColor=#dae8fc;strokeColor=#6c8ebf;" parent="1" vertex="1">
          <mxGeometry x="370" y="260" width="110" height="50" as="geometry" />
        </mxCell>
        <mxCell id="aH-Z5DzKjMp7ACJ8Fh6H-51" style="edgeStyle=orthogonalEdgeStyle;rounded=0;orthogonalLoop=1;jettySize=auto;html=1;exitX=1;exitY=0.5;exitDx=0;exitDy=0;entryX=0;entryY=0.25;entryDx=0;entryDy=0;" parent="1" source="aH-Z5DzKjMp7ACJ8Fh6H-8" target="aH-Z5DzKjMp7ACJ8Fh6H-11" edge="1">
          <mxGeometry relative="1" as="geometry">
            <Array as="points">
              <mxPoint x="600" y="495" />
              <mxPoint x="600" y="325" />
            </Array>
          </mxGeometry>
        </mxCell>
        <mxCell id="aH-Z5DzKjMp7ACJ8Fh6H-8" value="" style="html=1;whiteSpace=wrap;fillColor=#dae8fc;strokeColor=#6c8ebf;" parent="1" vertex="1">
          <mxGeometry x="375" y="470" width="110" height="50" as="geometry" />
        </mxCell>
        <mxCell id="aH-Z5DzKjMp7ACJ8Fh6H-10" value="" style="html=1;whiteSpace=wrap;fillColor=#ffff88;strokeColor=#36393d;" parent="1" vertex="1">
          <mxGeometry x="890" y="310" width="70" height="60" as="geometry" />
        </mxCell>
        <mxCell id="DLY3xhGK-zQfa2fsxEeC-4" style="edgeStyle=orthogonalEdgeStyle;rounded=0;orthogonalLoop=1;jettySize=auto;html=1;exitX=1;exitY=0.5;exitDx=0;exitDy=0;entryX=0;entryY=0.5;entryDx=0;entryDy=0;" edge="1" parent="1" source="aH-Z5DzKjMp7ACJ8Fh6H-11" target="aH-Z5DzKjMp7ACJ8Fh6H-10">
          <mxGeometry relative="1" as="geometry" />
        </mxCell>
        <mxCell id="aH-Z5DzKjMp7ACJ8Fh6H-11" value="" style="html=1;whiteSpace=wrap;fillColor=#ffff88;strokeColor=#36393d;" parent="1" vertex="1">
          <mxGeometry x="700" y="310" width="90" height="60" as="geometry" />
        </mxCell>
        <mxCell id="aH-Z5DzKjMp7ACJ8Fh6H-14" value="" style="html=1;whiteSpace=wrap;fillColor=#ffff88;strokeColor=#36393d;" parent="1" vertex="1">
          <mxGeometry x="880" y="750" width="110" height="50" as="geometry" />
        </mxCell>
        <mxCell id="aH-Z5DzKjMp7ACJ8Fh6H-56" style="edgeStyle=orthogonalEdgeStyle;rounded=0;orthogonalLoop=1;jettySize=auto;html=1;exitX=1;exitY=0.5;exitDx=0;exitDy=0;entryX=0.5;entryY=0;entryDx=0;entryDy=0;" parent="1" source="aH-Z5DzKjMp7ACJ8Fh6H-15" target="aH-Z5DzKjMp7ACJ8Fh6H-14" edge="1">
          <mxGeometry relative="1" as="geometry" />
        </mxCell>
        <mxCell id="aH-Z5DzKjMp7ACJ8Fh6H-15" value="" style="html=1;whiteSpace=wrap;fillColor=#ffff88;strokeColor=#36393d;" parent="1" vertex="1">
          <mxGeometry x="780" y="650" width="110" height="50" as="geometry" />
        </mxCell>
        <mxCell id="aH-Z5DzKjMp7ACJ8Fh6H-16" value="" style="html=1;whiteSpace=wrap;fillColor=#ffff88;strokeColor=#36393d;" parent="1" vertex="1">
          <mxGeometry x="720" y="490" width="110" height="50" as="geometry" />
        </mxCell>
        <mxCell id="aH-Z5DzKjMp7ACJ8Fh6H-20" value="" style="html=1;whiteSpace=wrap;fillColor=#ffff88;strokeColor=#36393d;" parent="1" vertex="1">
          <mxGeometry x="1190" y="335" width="80" height="40" as="geometry" />
        </mxCell>
        <mxCell id="aH-Z5DzKjMp7ACJ8Fh6H-43" style="edgeStyle=orthogonalEdgeStyle;rounded=0;orthogonalLoop=1;jettySize=auto;html=1;exitX=1;exitY=0.5;exitDx=0;exitDy=0;entryX=0;entryY=0.5;entryDx=0;entryDy=0;" parent="1" source="aH-Z5DzKjMp7ACJ8Fh6H-21" target="aH-Z5DzKjMp7ACJ8Fh6H-6" edge="1">
          <mxGeometry relative="1" as="geometry" />
        </mxCell>
        <mxCell id="aH-Z5DzKjMp7ACJ8Fh6H-21" value="" style="html=1;whiteSpace=wrap;fillColor=#fff2cc;strokeColor=#d6b656;" parent="1" vertex="1">
          <mxGeometry x="200" y="315" width="70" height="120" as="geometry" />
        </mxCell>
        <mxCell id="aH-Z5DzKjMp7ACJ8Fh6H-50" style="edgeStyle=orthogonalEdgeStyle;rounded=0;orthogonalLoop=1;jettySize=auto;html=1;exitX=0.5;exitY=0;exitDx=0;exitDy=0;" parent="1" source="aH-Z5DzKjMp7ACJ8Fh6H-21" target="aH-Z5DzKjMp7ACJ8Fh6H-29" edge="1">
          <mxGeometry relative="1" as="geometry">
            <Array as="points">
              <mxPoint x="235" y="170" />
              <mxPoint x="740" y="170" />
            </Array>
          </mxGeometry>
        </mxCell>
        <mxCell id="aH-Z5DzKjMp7ACJ8Fh6H-23" value="&lt;font face=&quot;Times New Roman&quot;&gt;&lt;b&gt;START&lt;/b&gt;&lt;/font&gt;" style="text;align=center;html=1;verticalAlign=middle;whiteSpace=wrap;rounded=0;" parent="1" vertex="1">
          <mxGeometry x="205" y="330" width="60" height="90" as="geometry" />
        </mxCell>
        <mxCell id="aH-Z5DzKjMp7ACJ8Fh6H-24" value="&lt;font style=&quot;font-size: 12px;&quot; face=&quot;Times New Roman&quot;&gt;PreEdit&lt;/font&gt;" style="text;strokeColor=none;align=center;fillColor=none;html=1;verticalAlign=middle;whiteSpace=wrap;rounded=0;" parent="1" vertex="1">
          <mxGeometry x="395" y="270" width="60" height="30" as="geometry" />
        </mxCell>
        <mxCell id="aH-Z5DzKjMp7ACJ8Fh6H-25" value="&lt;font style=&quot;font-size: 12px;&quot; face=&quot;Times New Roman&quot;&gt;PostEdit&lt;/font&gt;" style="text;strokeColor=none;align=center;fillColor=none;html=1;verticalAlign=middle;whiteSpace=wrap;rounded=0;" parent="1" vertex="1">
          <mxGeometry x="400" y="480" width="60" height="30" as="geometry" />
        </mxCell>
        <mxCell id="aH-Z5DzKjMp7ACJ8Fh6H-26" value="&lt;font style=&quot;font-size: 12px;&quot; face=&quot;Times New Roman&quot;&gt;&lt;b&gt;Edit Phase&lt;/b&gt;&lt;/font&gt;" style="text;strokeColor=none;align=center;fillColor=none;html=1;verticalAlign=middle;whiteSpace=wrap;rounded=0;" parent="1" vertex="1">
          <mxGeometry x="395" y="225" width="60" height="30" as="geometry" />
        </mxCell>
        <mxCell id="aH-Z5DzKjMp7ACJ8Fh6H-27" value="&lt;font style=&quot;font-size: 12px;&quot; face=&quot;Times New Roman&quot;&gt;&lt;b&gt;Game Phase&lt;/b&gt;&lt;/font&gt;" style="text;strokeColor=none;align=center;fillColor=none;html=1;verticalAlign=middle;whiteSpace=wrap;rounded=0;" parent="1" vertex="1">
          <mxGeometry x="800" y="185" width="130" height="30" as="geometry" />
        </mxCell>
        <mxCell id="aH-Z5DzKjMp7ACJ8Fh6H-28" value="&lt;font style=&quot;font-size: 12px;&quot; face=&quot;Times New Roman&quot;&gt;&lt;b&gt;Game Setup Phase&lt;/b&gt;&lt;/font&gt;" style="text;strokeColor=none;align=center;fillColor=none;html=1;verticalAlign=middle;whiteSpace=wrap;rounded=0;" parent="1" vertex="1">
          <mxGeometry x="720" y="275" width="165" height="30" as="geometry" />
        </mxCell>
        <mxCell id="aH-Z5DzKjMp7ACJ8Fh6H-29" value="&lt;font style=&quot;font-size: 12px;&quot; face=&quot;Times New Roman&quot;&gt;PreLoad&lt;/font&gt;" style="text;strokeColor=none;align=center;fillColor=none;html=1;verticalAlign=middle;whiteSpace=wrap;rounded=0;" parent="1" vertex="1">
          <mxGeometry x="710" y="315" width="60" height="25" as="geometry" />
        </mxCell>
        <mxCell id="aH-Z5DzKjMp7ACJ8Fh6H-30" value="&lt;font style=&quot;font-size: 12px;&quot; face=&quot;Times New Roman&quot;&gt;PostLoad&lt;/font&gt;" style="text;strokeColor=none;align=center;fillColor=none;html=1;verticalAlign=middle;whiteSpace=wrap;rounded=0;" parent="1" vertex="1">
          <mxGeometry x="900" y="325" width="60" height="30" as="geometry" />
        </mxCell>
        <mxCell id="aH-Z5DzKjMp7ACJ8Fh6H-31" value="&lt;font style=&quot;font-size: 12px;&quot; face=&quot;Times New Roman&quot;&gt;&lt;b&gt;GameplayPhase&lt;/b&gt;&lt;/font&gt;" style="text;strokeColor=none;align=center;fillColor=none;html=1;verticalAlign=middle;whiteSpace=wrap;rounded=0;" parent="1" vertex="1">
          <mxGeometry x="795" y="450" width="60" height="30" as="geometry" />
        </mxCell>
        <mxCell id="aH-Z5DzKjMp7ACJ8Fh6H-32" value="&lt;font style=&quot;font-size: 12px;&quot; face=&quot;Times New Roman&quot;&gt;Assign Reinforcements&lt;/font&gt;" style="text;strokeColor=none;align=center;fillColor=none;html=1;verticalAlign=middle;whiteSpace=wrap;rounded=0;" parent="1" vertex="1">
          <mxGeometry x="740" y="500" width="60" height="30" as="geometry" />
        </mxCell>
        <mxCell id="aH-Z5DzKjMp7ACJ8Fh6H-33" value="&lt;font style=&quot;font-size: 12px;&quot; face=&quot;Times New Roman&quot;&gt;Execute Orders&lt;/font&gt;" style="text;strokeColor=none;align=center;fillColor=none;html=1;verticalAlign=middle;whiteSpace=wrap;rounded=0;" parent="1" vertex="1">
          <mxGeometry x="905" y="760" width="60" height="30" as="geometry" />
        </mxCell>
        <mxCell id="aH-Z5DzKjMp7ACJ8Fh6H-34" value="&lt;font style=&quot;font-size: 12px;&quot; face=&quot;Times New Roman&quot;&gt;Issue Orders&lt;/font&gt;" style="text;strokeColor=none;align=center;fillColor=none;html=1;verticalAlign=middle;whiteSpace=wrap;rounded=0;" parent="1" vertex="1">
          <mxGeometry x="800" y="660" width="60" height="30" as="geometry" />
        </mxCell>
        <mxCell id="aH-Z5DzKjMp7ACJ8Fh6H-35" value="&lt;span style=&quot;font-family: &amp;quot;Times New Roman&amp;quot;;&quot;&gt;&lt;b&gt;End Phase&lt;/b&gt;&lt;/span&gt;" style="text;strokeColor=none;align=center;fillColor=none;html=1;verticalAlign=middle;whiteSpace=wrap;rounded=0;" parent="1" vertex="1">
          <mxGeometry x="1210" y="280" width="60" height="30" as="geometry" />
        </mxCell>
        <mxCell id="aH-Z5DzKjMp7ACJ8Fh6H-37" value="&lt;span style=&quot;font-family: &amp;quot;Times New Roman&amp;quot;;&quot;&gt;End&lt;/span&gt;" style="text;align=center;html=1;verticalAlign=middle;whiteSpace=wrap;rounded=0;" parent="1" vertex="1">
          <mxGeometry x="1200" y="340" width="60" height="30" as="geometry" />
        </mxCell>
        <mxCell id="aH-Z5DzKjMp7ACJ8Fh6H-47" style="edgeStyle=orthogonalEdgeStyle;rounded=0;orthogonalLoop=1;jettySize=auto;html=1;exitX=0.5;exitY=1;exitDx=0;exitDy=0;entryX=0.5;entryY=0;entryDx=0;entryDy=0;" parent="1" source="aH-Z5DzKjMp7ACJ8Fh6H-6" target="aH-Z5DzKjMp7ACJ8Fh6H-8" edge="1">
          <mxGeometry relative="1" as="geometry">
            <Array as="points">
              <mxPoint x="430" y="310" />
            </Array>
          </mxGeometry>
        </mxCell>
        <mxCell id="aH-Z5DzKjMp7ACJ8Fh6H-53" style="edgeStyle=orthogonalEdgeStyle;rounded=0;orthogonalLoop=1;jettySize=auto;html=1;exitX=0.5;exitY=1;exitDx=0;exitDy=0;entryX=0.375;entryY=-0.032;entryDx=0;entryDy=0;entryPerimeter=0;" parent="1" source="aH-Z5DzKjMp7ACJ8Fh6H-10" target="aH-Z5DzKjMp7ACJ8Fh6H-16" edge="1">
          <mxGeometry relative="1" as="geometry" />
        </mxCell>
        <mxCell id="aH-Z5DzKjMp7ACJ8Fh6H-54" style="edgeStyle=orthogonalEdgeStyle;rounded=0;orthogonalLoop=1;jettySize=auto;html=1;exitX=1;exitY=0.5;exitDx=0;exitDy=0;entryX=0.687;entryY=0.016;entryDx=0;entryDy=0;entryPerimeter=0;" parent="1" source="aH-Z5DzKjMp7ACJ8Fh6H-16" target="aH-Z5DzKjMp7ACJ8Fh6H-15" edge="1">
          <mxGeometry relative="1" as="geometry" />
        </mxCell>
        <mxCell id="aH-Z5DzKjMp7ACJ8Fh6H-57" style="edgeStyle=orthogonalEdgeStyle;rounded=0;orthogonalLoop=1;jettySize=auto;html=1;exitX=0;exitY=0.5;exitDx=0;exitDy=0;entryX=0.149;entryY=0.96;entryDx=0;entryDy=0;entryPerimeter=0;" parent="1" source="aH-Z5DzKjMp7ACJ8Fh6H-14" target="aH-Z5DzKjMp7ACJ8Fh6H-16" edge="1">
          <mxGeometry relative="1" as="geometry" />
        </mxCell>
        <mxCell id="aH-Z5DzKjMp7ACJ8Fh6H-63" style="edgeStyle=orthogonalEdgeStyle;rounded=0;orthogonalLoop=1;jettySize=auto;html=1;exitX=0.5;exitY=1;exitDx=0;exitDy=0;entryX=1;entryY=0.5;entryDx=0;entryDy=0;startArrow=classic;startFill=1;endArrow=none;endFill=0;" parent="1" source="aH-Z5DzKjMp7ACJ8Fh6H-19" target="aH-Z5DzKjMp7ACJ8Fh6H-14" edge="1">
          <mxGeometry relative="1" as="geometry" />
        </mxCell>
      </root>
    </mxGraphModel>
  </diagram>
</mxfile>
